<svg width="19" height="18" viewBox="0 0 19 18" fill="none" xmlns="http://www.w3.org/2000/svg">
<path d="M6.5 18H2.5C2.22386 18 2 17.7761 2 17.5V8.5C2 8.22386 1.77614 8 1.5 8H0.92539C0.452752 8 0.243975 7.40482 0.613043 7.10957L9.17952 0.256386C9.36581 0.107351 9.63145 0.110692 9.81393 0.264365L17.9521 7.11754C18.3088 7.41795 18.0964 8 17.63 8H17C16.7239 8 16.5 8.22386 16.5 8.5V17.5C16.5 17.7761 16.2761 18 16 18H12.5C12.2239 18 12 17.7761 12 17.5V14C12 13.7239 11.7761 13.5 11.5 13.5H7.5C7.22386 13.5 7 13.7239 7 14V17.5C7 17.7761 6.77614 18 6.5 18Z" fill="white"/>
</svg>
